<svg xmlns="http://www.w3.org/2000/svg" width="760" height="838" viewBox="0 0 760 838" role="img" aria-labelledby="title desc">
<title id="title">WF-013 · Admin Hub Action Publishing</title><desc id="desc">Every state change is validated server-side and logged.</desc>
<defs><marker id="arrow" viewBox="0 0 10 10" refX="9" refY="5" markerWidth="7" markerHeight="7" orient="auto-start-reverse"><path d="M 0 0 L 10 5 L 0 10 z" fill="#1B365D"/></marker><filter id="shadow" x="-20%" y="-20%" width="140%" height="140%"><feDropShadow dx="0" dy="2" stdDeviation="3" flood-opacity="0.12"/></filter></defs>
<rect width="100%" height="100%" fill="#F8F7F4"/><text x="40" y="42" font-family="IBM Plex Sans, Arial, sans-serif" font-size="22" font-weight="700" fill="#0F2340">WF-013 · Admin Hub Action Publishing</text>
<path d="M 390.0 128 L 390.0 160" fill="none" stroke="#1B365D" stroke-width="2" marker-end="url(#arrow)"/>
<path d="M 390.0 240 L 390.0 270.0 L 155.0 270.0 L 155.0 300" fill="none" stroke="#1B365D" stroke-width="2" marker-end="url(#arrow)"/>
<text x="280.5" y="265.0" font-family="IBM Plex Mono, monospace" font-size="11" fill="#5A6B80">YES</text>
<path d="M 390.0 240 L 390.0 270.0 L 595.0 270.0 L 595.0 300" fill="none" stroke="#1B365D" stroke-width="2" marker-end="url(#arrow)"/>
<text x="500.5" y="265.0" font-family="IBM Plex Mono, monospace" font-size="11" fill="#5A6B80">NO</text>
<path d="M 155.0 358 L 155.0 390" fill="none" stroke="#1B365D" stroke-width="2" marker-end="url(#arrow)"/>
<path d="M 155.0 448 L 155.0 480" fill="none" stroke="#1B365D" stroke-width="2" marker-end="url(#arrow)"/>
<path d="M 155.0 560 L 155.0 585.0 L 145.0 585.0 L 145.0 610" fill="none" stroke="#1B365D" stroke-width="2" marker-end="url(#arrow)"/>
<text x="158.0" y="580.0" font-family="IBM Plex Mono, monospace" font-size="11" fill="#5A6B80">NOW</text>
<path d="M 155.0 560 L 155.0 585.0 L 395.0 585.0 L 395.0 610" fill="none" stroke="#1B365D" stroke-width="2" marker-end="url(#arrow)"/>
<text x="283.0" y="580.0" font-family="IBM Plex Mono, monospace" font-size="11" fill="#5A6B80">LATER</text>
<path d="M 145.0 668 L 145.0 684.0 L 270.0 684.0 L 270.0 700" fill="none" stroke="#1B365D" stroke-width="2" marker-end="url(#arrow)"/>
<path d="M 395.0 668 L 395.0 684.0 L 270.0 684.0 L 270.0 700" fill="none" stroke="#1B365D" stroke-width="2" marker-end="url(#arrow)"/>
<rect x="270" y="70" width="240" height="58" rx="14" fill="#FFFFFF" stroke="#D0CCC4" stroke-width="1.5" filter="url(#shadow)"/>
<text x="390.0" y="99.0" text-anchor="middle" font-family="IBM Plex Sans, Arial, sans-serif" font-size="13" font-weight="600" fill="#0F2340">Admin opens Hub Actions</text>
<text x="390.0" y="118" text-anchor="middle" font-family="IBM Plex Mono, monospace" font-size="9.5" fill="#5A6B80">communications admin</text>
<polygon points="390.0,160 510,200.0 390.0,240 270,200.0" fill="#FFFFFF" stroke="#1B365D" stroke-width="2" filter="url(#shadow)"/>
<text x="390.0" y="192.0" text-anchor="middle" font-family="IBM Plex Sans, Arial, sans-serif" font-size="13" font-weight="600" fill="#0F2340">Admin/editor capability</text>
<text x="390.0" y="209.0" text-anchor="middle" font-family="IBM Plex Sans, Arial, sans-serif" font-size="13" font-weight="600" fill="#0F2340">valid?</text>
<text x="390.0" y="230" text-anchor="middle" font-family="IBM Plex Mono, monospace" font-size="9.5" fill="#5A6B80">backend</text>
<rect x="40" y="300" width="230" height="58" rx="14" fill="#FFFFFF" stroke="#D0CCC4" stroke-width="1.5" filter="url(#shadow)"/>
<text x="155.0" y="329.0" text-anchor="middle" font-family="IBM Plex Sans, Arial, sans-serif" font-size="13" font-weight="600" fill="#0F2340">Create or edit action</text>
<text x="155.0" y="348" text-anchor="middle" font-family="IBM Plex Mono, monospace" font-size="9.5" fill="#5A6B80">priority + audience + dates</text>
<rect x="480" y="300" width="230" height="58" rx="14" fill="#fff6fa" stroke="#E91E8C" stroke-width="2" filter="url(#shadow)"/>
<text x="595.0" y="329.0" text-anchor="middle" font-family="IBM Plex Sans, Arial, sans-serif" font-size="13" font-weight="600" fill="#0F2340">Deny admin surface/action</text>
<text x="595.0" y="348" text-anchor="middle" font-family="IBM Plex Mono, monospace" font-size="9.5" fill="#5A6B80">403</text>
<rect x="40" y="390" width="230" height="58" rx="14" fill="#eef5fb" stroke="#1B365D" stroke-width="2" filter="url(#shadow)"/>
<text x="155.0" y="419.0" text-anchor="middle" font-family="IBM Plex Sans, Arial, sans-serif" font-size="13" font-weight="600" fill="#0F2340">Validate content + CTA URL</text>
<text x="155.0" y="438" text-anchor="middle" font-family="IBM Plex Mono, monospace" font-size="9.5" fill="#5A6B80">allow-list + rules</text>
<polygon points="155.0,480 270,520.0 155.0,560 40,520.0" fill="#FFFFFF" stroke="#1B365D" stroke-width="2" filter="url(#shadow)"/>
<text x="155.0" y="512.0" text-anchor="middle" font-family="IBM Plex Sans, Arial, sans-serif" font-size="13" font-weight="600" fill="#0F2340">Draft, publish now, or</text>
<text x="155.0" y="529.0" text-anchor="middle" font-family="IBM Plex Sans, Arial, sans-serif" font-size="13" font-weight="600" fill="#0F2340">schedule?</text>
<text x="155.0" y="550" text-anchor="middle" font-family="IBM Plex Mono, monospace" font-size="9.5" fill="#5A6B80">state transition</text>
<rect x="40" y="610" width="210" height="58" rx="14" fill="#f1faed" stroke="#4CBB17" stroke-width="2" filter="url(#shadow)"/>
<text x="145.0" y="639.0" text-anchor="middle" font-family="IBM Plex Sans, Arial, sans-serif" font-size="13" font-weight="600" fill="#0F2340">Publish active action</text>
<text x="145.0" y="658" text-anchor="middle" font-family="IBM Plex Mono, monospace" font-size="9.5" fill="#5A6B80">home banner</text>
<rect x="290" y="610" width="210" height="58" rx="14" fill="#eef5fb" stroke="#1B365D" stroke-width="2" filter="url(#shadow)"/>
<text x="395.0" y="639.0" text-anchor="middle" font-family="IBM Plex Sans, Arial, sans-serif" font-size="13" font-weight="600" fill="#0F2340">Schedule activation</text>
<text x="395.0" y="658" text-anchor="middle" font-family="IBM Plex Mono, monospace" font-size="9.5" fill="#5A6B80">start/end dates</text>
<rect x="40" y="700" width="460" height="58" rx="14" fill="#eef5fb" stroke="#1B365D" stroke-width="2" filter="url(#shadow)"/>
<text x="270.0" y="721.0" text-anchor="middle" font-family="IBM Plex Sans, Arial, sans-serif" font-size="13" font-weight="600" fill="#0F2340">Write immutable audit</text>
<text x="270.0" y="738.0" text-anchor="middle" font-family="IBM Plex Sans, Arial, sans-serif" font-size="13" font-weight="600" fill="#0F2340">entry</text>
<text x="270.0" y="748" text-anchor="middle" font-family="IBM Plex Mono, monospace" font-size="9.5" fill="#5A6B80">author + timestamp + change</text>
<text x="40" y="814" font-family="IBM Plex Sans, Arial, sans-serif" font-size="11" fill="#5A6B80">Every state change is validated server-side and logged.</text>
</svg>